<?xml version="1.0" encoding="UTF-8" standalone="no"?>
<svg id="svg2" xmlns:rdf="http://www.w3.org/1999/02/22-rdf-syntax-ns#" xmlns="http://www.w3.org/2000/svg" height="72.249mm" viewBox="0 0 255.99999 255.99999" width="72.249mm" version="1.1" xmlns:cc="http://creativecommons.org/ns#" xmlns:dc="http://purl.org/dc/elements/1.1/">
 <g id="layer1" transform="translate(0 -796.36)">
  <rect id="rect3336" fill-rule="evenodd" ry="16" height="256" width="256" y="796.36" x="0" fill="#6071A3"/>
  <g id="g4219" fill="#e6e6e6" transform="translate(350,163.5)">
   <path id="path4179" fill-rule="evenodd" d="m-319 793.36 17-70 8.9645-0.7701 156.96 24.239 6.0713 3.5313 3 36 6 3 5.069 4.1724 1.5814 16.645 1.3496 8.1821-2 8-8 4-7-12-6.2-5.4-8.8 0.4h-11l-9 9-5 11-103-14-1-12-7-10-16-3-8 5-6 9-4 3-12-2-1-7 3-5z"/>
   <ellipse id="path4202" cy="832.86" cx="-145.5" rx="17.5" ry="16.5"/>
   <circle id="path4202-4" cy="815.36" cx="-293" r="16.5"/>
  </g>
  <g id="g4181" fill="#6071A3" transform="translate(0,-4)">
   <path id="path4232" d="m136.69 917.75 0.55586 3.8079-2.6306 2.8088-3.8361-0.30542-2.153-3.1896 1.1514-3.672 3.5888-1.3893z"/>
   <path id="path4232-7" d="m110.25 931.52 0.55586 3.8079-2.6306 2.8088-3.8361-0.30542-2.153-3.1896 1.1514-3.672 3.5888-1.3893z"/>
   <path id="path4232-4" d="m74.754 931.02 0.55586 3.8079-2.6306 2.8088-3.8361-0.30542-2.153-3.1896 1.1514-3.672 3.5888-1.3893z"/>
   <path id="path4232-1" d="m95.254 925.52 0.55586 3.8079-2.6306 2.8088-3.8361-0.30542-2.153-3.1896 1.1514-3.672 3.5888-1.3893z"/>
   <path id="path4232-0" d="m119.25 914.52 0.55586 3.8079-2.6306 2.8088-3.8361-0.30542-2.153-3.1896 1.1514-3.672 3.5888-1.3893z"/>
  </g>
  <path id="path4269" fill-rule="evenodd" fill="#e6e6e6" d="m113.5 846.36-2-4.5-4.5-1.5-4.5-4s-2-4.5-1.5-7 2.5-1.5 2.5-1.5l5.5 2.5 10 7.5 5.5 2.5 5.5 11.5 2-7.5 3.5-4.5 5-4.5 5.5769-3.6154-0.0769 7.1154-1 7.5 3.5 11.5 4 6.5s6.5 5.5 7.5 7.5 9.5 9 9.5 9l7 8.5 3.5 11-4.5 1.5c-38.28-7.23-38.19-6.92-115.5-18.5l-13.5 1-3.5 5.5-2 9.5-4.5-5.5-2-6.5-0.5-7-0.5-9.5-0.5-7-0.5-9 1.5-10 1.5-6.5 3.5-3.5 4 10 1 6 1.5 6 4.5 5.5 9.5 6.5 7 4 8 4 3 0.5-4.5-6.5-2-4-0.5-7.5 0.5-3.9833 1.8774-3.6462 3.1393-2.6454 0.46665 6.05 2.2621 3.5176 3.0129 3.4991 4.2417 4.2083 3 3 5 3.5 7.5-1 8 0.5 2-5.5-1.5-4-3.5-3-3-3.5-1.5-4-1-5 1.5-3.5 2.5-1.5 1 6 4.5 1z"/>
 </g>
</svg>
